<svg width="416" height="395" viewBox="0 0 416 395" fill="none" xmlns="http://www.w3.org/2000/svg">
<g clip-path="url(#clip0_160_1103)">
<rect width="416" height="395" rx="10" fill="#E05D54"/>
<g clip-path="url(#clip1_160_1103)">
<path d="M199.467 117.686C199.951 103.462 183.884 101.24 178.151 104.067C179.644 120.47 192.145 120.832 199.467 117.684V117.686Z" fill="#FBEBEA"/>
<path d="M262.248 151.016C262.529 151.73 262.673 152.1 262.721 152.22C262.654 152.054 262.464 151.563 262.248 151.016Z" fill="#FBEBEA"/>
<path d="M262.104 150.641C262.151 150.765 262.2 150.89 262.248 151.014C262.202 150.892 262.158 150.781 262.102 150.636C260.983 147.775 261.542 149.207 262.1 150.635C258.53 141.498 251.396 133.967 242.068 130.688C231.941 127.13 221.386 129.149 211.364 131.919C211.173 126.438 211.636 120.939 212.415 115.511C212.856 112.447 214.968 106.112 209.731 105.894C205.385 105.713 205.372 111.539 204.949 114.509C204.13 120.208 203.648 125.984 203.804 131.745C201.395 131.343 199.018 130.446 196.619 129.948C193.042 129.21 189.4 128.748 185.746 128.743C178.703 128.743 171.751 130.611 165.956 134.693C154.699 142.624 150.316 156.459 150.506 169.751C150.714 184.143 155.583 197.888 163.773 209.626C167.388 214.809 171.544 219.78 176.681 223.518C181.672 227.152 187.249 228.854 193.301 229.721C195.871 230.092 198.487 230.102 201.05 229.683C203.287 229.317 205.383 228.371 207.601 227.997C209.277 227.714 211.641 229.035 213.263 229.395C216.028 230.017 218.873 230.146 221.691 229.825C231.998 228.649 240.164 223.994 246.946 216.189C261.863 199.025 270.753 172.748 262.105 150.639L262.104 150.641ZM181.317 164.338C176.024 164.338 171.736 160.044 171.736 154.745C171.736 149.445 176.024 145.151 181.317 145.151C186.61 145.151 190.899 149.445 190.899 154.745C190.899 160.044 186.608 164.338 181.317 164.338Z" fill="#FBEBEA"/>
</g>
</g>
<rect x="0.5" y="0.5" width="415" height="394" rx="9.5" stroke="#D93A2F"/>
<defs>
<clipPath id="clip0_160_1103">
<rect width="416" height="395" rx="10" fill="white"/>
</clipPath>
<clipPath id="clip1_160_1103">
<rect width="115" height="127" fill="white" transform="translate(150.5 103)"/>
</clipPath>
</defs>
</svg>
