<svg width="416" height="395" viewBox="0 0 416 395" fill="none" xmlns="http://www.w3.org/2000/svg">
<g clip-path="url(#clip0_160_1104)">
<rect width="416" height="395" rx="10" fill="#76CC7A"/>
<g clip-path="url(#clip1_160_1104)">
<path d="M259.976 139.812C251.576 128.507 235.443 127.711 217.367 136.689C199.289 145.663 194.9 162.321 186.6 173.979C179.836 183.479 172.379 189.12 167.899 190.982C174.783 183.319 185.48 169.749 185.48 169.749C185.48 169.749 195.527 153.052 191.796 156.384C188.843 159.027 170.053 178.42 162.393 186.346C163.528 181.655 167.991 173.388 176.423 165.231C186.709 155.278 212.832 140.959 219 121.748C225.169 102.532 216.288 77.7367 203.5 76.5488C197.728 76.012 190.274 79.887 184.893 89.1529C179.11 99.1127 171.932 107.294 169.06 115.587C164.495 128.774 171.879 147.432 164.846 162.633C159.884 173.362 151.273 181.748 156.769 194.102C156.969 194.552 157.272 194.79 157.628 194.875C157.721 196.37 158.59 197.158 160.09 196.984C160.229 197.33 160.508 197.597 160.993 197.733C174.033 201.314 181.038 191.546 190.901 185.034C204.881 175.802 211.554 182.95 225.481 180.436C235.696 178.596 240.141 171.195 249.122 163.986C257.479 157.278 263.491 144.541 259.976 139.81V139.812ZM194.617 108.957C200.033 95.6341 202.678 90.5528 204.26 92.7305C206.176 95.3657 184.298 145.033 179.762 149.308C175.225 153.578 189.2 122.28 194.618 108.957H194.617ZM224.667 159.311C216.619 164.65 201.429 175.286 203.982 169.31C205.228 166.39 222.001 155.382 244.395 144.396C268.771 135.116 232.711 153.967 224.665 159.309L224.667 159.311Z" fill="#EEF9EF"/>
<path d="M224.045 122.186C227.98 117.785 244.707 99.2347 246.287 100.054C247.792 100.833 231.154 121.114 223.534 128.864C231.476 124.507 248.544 127.533 248.544 127.533C248.544 127.533 252.861 125.526 252.309 120.147C251.757 114.768 266.575 96.4531 248.323 90.1594C232.849 84.8234 222.13 92.7687 222.13 92.7687C225.007 100.438 225.038 113.05 224.045 122.187V122.186Z" fill="#EEF9EF"/>
</g>
</g>
<defs>
<clipPath id="clip0_160_1104">
<rect width="416" height="395" rx="10" fill="white"/>
</clipPath>
<clipPath id="clip1_160_1104">
<rect width="106" height="122" fill="white" transform="translate(155 76.5)"/>
</clipPath>
</defs>
</svg>
