<svg width="82" height="82" viewBox="0 0 82 82" fill="none" xmlns="http://www.w3.org/2000/svg">
<rect width="82" height="82" rx="41" fill="#28572A"/>
<mask id="mask0_160_1286" style="mask-type:alpha" maskUnits="userSpaceOnUse" x="21" y="21" width="39" height="40">
<rect x="21" y="21.5" width="39" height="39" fill="#EEF9EF"/>
</mask>
<g mask="url(#mask0_160_1286)">
<path d="M44.5219 41L32.5781 29.0563C32.1719 28.65 31.9755 28.1693 31.9891 27.6141C32.0026 27.0589 32.2125 26.5781 32.6187 26.1719C33.025 25.7656 33.5057 25.5625 34.0609 25.5625C34.6161 25.5625 35.0969 25.7656 35.5031 26.1719L47.975 38.6844C48.3 39.0094 48.5437 39.375 48.7062 39.7812C48.8687 40.1875 48.95 40.5938 48.95 41C48.95 41.4062 48.8687 41.8125 48.7062 42.2188C48.5437 42.625 48.3 42.9906 47.975 43.3156L35.4625 55.8281C35.0562 56.2344 34.5823 56.4307 34.0406 56.4172C33.499 56.4036 33.025 56.1938 32.6187 55.7875C32.2125 55.3813 32.0094 54.9005 32.0094 54.3453C32.0094 53.7901 32.2125 53.3094 32.6187 52.9031L44.5219 41Z" fill="#EEF9EF"/>
</g>
</svg>
