<svg width="132" height="38" viewBox="0 0 132 38" fill="none" xmlns="http://www.w3.org/2000/svg">
<g clip-path="url(#clip0_470_513)">
<path d="M38 19C38 8.50658 29.4934 0 19 0C8.50658 0 0 8.50658 0 19C0 28.4834 6.94803 36.3438 16.0312 37.7692V24.4922H11.207V19H16.0312V14.8141C16.0312 10.0522 18.8678 7.42187 23.2078 7.42187C25.2866 7.42187 27.4609 7.79297 27.4609 7.79297V12.4687H25.0651C22.7048 12.4687 21.9688 13.9333 21.9688 15.4359V19H27.2383L26.3959 24.4922H21.9688V37.7692C31.052 36.3438 38 28.4834 38 19Z" fill="#3E8942"/>
<path d="M26.3959 24.4922L27.2383 19H21.9688V15.4359C21.9688 13.9333 22.7048 12.4688 25.0651 12.4688H27.4609V7.79297C27.4609 7.79297 25.2866 7.42188 23.2078 7.42188C18.8678 7.42188 16.0312 10.0522 16.0312 14.8141V19H11.207V24.4922H16.0312V37.7692C16.9986 37.921 17.99 38 19 38C20.01 38 21.0014 37.921 21.9688 37.7692V24.4922H26.3959Z" fill="#FCF8F8"/>
</g>
<rect x="47" width="38" height="38" rx="19" fill="#3E8942"/>
<path d="M68.2832 17.1621L77.2176 7H75.1004L67.3429 15.8238L61.1468 7H54L63.3694 20.343L54 31H56.1172L64.3093 21.6813L70.8532 31H78L68.2823 17.1621H68.2832ZM65.3831 20.4606L64.4339 19.132L56.88 8.55952H60.1323L66.2284 17.0915L67.1776 18.4202L75.1014 29.511H71.849L65.3831 20.4606Z" fill="#FCF8F8"/>
<rect x="94" width="38" height="38" rx="19" fill="#3E8942"/>
<g clip-path="url(#clip1_470_513)">
<path d="M112.84 24.4899C115.93 24.4899 118.435 21.9847 118.435 18.8944C118.435 15.804 115.93 13.2988 112.84 13.2988C109.749 13.2988 107.244 15.804 107.244 18.8944C107.244 21.9847 109.749 24.4899 112.84 24.4899Z" fill="#FEFEFE"/>
<path d="M107.448 5.81738C103.124 5.81738 99.6033 9.33796 99.6033 13.6616V24.3377C99.6033 28.6614 103.124 32.1817 107.448 32.1817H118.232C122.555 32.1817 126.076 28.6616 126.076 24.3377V13.6616C126.076 9.33796 122.556 5.81738 118.232 5.81738H107.448ZM107.448 8.35414H118.232C121.194 8.35414 123.539 10.6996 123.539 13.6616V24.3377C123.539 27.3 121.194 29.645 118.232 29.645H107.448C104.485 29.645 102.14 27.3 102.14 24.3377V13.6616C102.14 10.6994 104.485 8.35414 107.448 8.35414Z" fill="#FEFEFE"/>
<path d="M119.961 13.6101C120.839 13.6101 121.55 12.8984 121.55 12.0204C121.55 11.1424 120.839 10.4307 119.961 10.4307C119.083 10.4307 118.371 11.1424 118.371 12.0204C118.371 12.8984 119.083 13.6101 119.961 13.6101Z" fill="#FEFEFE"/>
</g>
<defs>
<clipPath id="clip0_470_513">
<rect width="38" height="38" fill="white"/>
</clipPath>
<clipPath id="clip1_470_513">
<rect width="28" height="28" fill="white" transform="translate(99 5)"/>
</clipPath>
</defs>
</svg>
