<svg width="233" height="51" viewBox="0 0 233 51" fill="none" xmlns="http://www.w3.org/2000/svg">
<g clip-path="url(#clip0_327_1108)">
<path d="M20.7395 17.6996H8.11518V4.46501H0V38.2467H8.11518V24.337H20.7395V38.2467H28.8613V4.46501H20.7395V17.6996Z" fill="#5EBC5E"/>
<path d="M75.0407 15.8682V11.3898H66.9255V38.2467H75.0407V25.7807C75.0407 23.5683 75.5483 22.0176 76.557 21.1353C77.5722 20.2529 79.0884 19.8118 81.1123 19.8118H83.3405V11.1024C81.6001 11.1024 80.0179 11.5301 78.594 12.379C77.17 13.2279 75.9834 14.391 75.0341 15.8682H75.0407Z" fill="#5EBC5E"/>
<path d="M99.1555 30.5465L93.407 11.3965H84.7249L94.119 38.2467H104.139L113.533 11.3965H104.897L99.1555 30.5465Z" fill="#5EBC5E"/>
<path d="M135.558 12.6464C133.568 11.5569 131.287 11.0088 128.722 11.0088C126.158 11.0088 123.771 11.5702 121.747 12.6932C119.724 13.8161 118.148 15.4203 117.027 17.5058C115.9 19.5912 115.34 22.0309 115.34 24.8182C115.34 27.6055 115.907 30.0452 117.047 32.1307C118.188 34.2161 119.77 35.8203 121.794 36.9433C123.817 38.0662 126.131 38.6277 128.722 38.6277C130.871 38.6277 132.816 38.2266 134.563 37.4245C136.303 36.6224 137.754 35.5195 138.907 34.1025C140.061 32.6921 140.859 31.1013 141.307 29.3367H132.671C131.88 31.0679 130.469 31.9368 128.445 31.9368C127.087 31.9368 125.94 31.4957 125.004 30.6134C124.068 29.7311 123.541 28.4544 123.415 26.79H141.782C141.874 25.9545 141.927 25.1524 141.927 24.3837C141.927 21.69 141.366 19.3305 140.239 17.3119C139.112 15.2933 137.556 13.7359 135.565 12.6464H135.558ZM123.455 22.2248C123.672 20.7476 124.253 19.6113 125.189 18.8092C126.125 18.0071 127.272 17.606 128.63 17.606C129.988 17.606 131.24 18.0204 132.19 18.856C133.139 19.6915 133.614 20.8144 133.614 22.2248H123.455Z" fill="#5EBC5E"/>
<path d="M162.996 23.595C161.763 23.1004 160.161 22.5924 158.203 22.0777C156.496 21.69 155.237 21.309 154.432 20.9214C153.628 20.5337 153.219 19.9588 153.219 19.1902C153.219 18.5485 153.47 18.0405 153.977 17.6729C154.485 17.3052 155.21 17.1181 156.16 17.1181C157.267 17.1181 158.164 17.3921 158.843 17.9336C159.522 18.4817 159.924 19.2169 160.056 20.146H167.558C167.274 17.3855 166.173 15.173 164.262 13.502C162.343 11.8309 159.726 11.0021 156.403 11.0021C154.155 11.0021 152.217 11.3697 150.589 12.1117C148.961 12.8469 147.728 13.8495 146.884 15.1195C146.047 16.3895 145.625 17.7932 145.625 19.3305C145.625 21.162 146.086 22.6125 147.003 23.6886C147.919 24.7647 149.013 25.5468 150.279 26.0481C151.545 26.5427 153.127 27.0173 155.026 27.4651C156.799 27.913 158.078 28.3207 158.869 28.695C159.66 29.0626 160.056 29.6308 160.056 30.4062C160.056 31.0478 159.779 31.5692 159.225 31.9703C158.671 32.3713 157.887 32.5718 156.878 32.5718C155.771 32.5718 154.834 32.2844 154.076 31.7029C153.318 31.1214 152.89 30.3727 152.797 29.4436H144.775C144.9 31.1748 145.487 32.7389 146.528 34.1359C147.57 35.5329 148.994 36.6291 150.8 37.4312C152.606 38.2333 154.663 38.6343 156.97 38.6343C159.119 38.6343 161.011 38.2801 162.64 37.5782C164.268 36.8697 165.521 35.9005 166.391 34.664C167.261 33.4274 167.696 32.0237 167.696 30.4529C167.663 28.5948 167.182 27.1109 166.246 26.0013C165.31 24.8917 164.229 24.0963 162.996 23.595Z" fill="#5EBC5E"/>
<path d="M182.641 30.7404C182.259 30.3861 182.074 29.8113 182.074 29.0092V18.2277H187.387V11.3965H182.074V4.846H173.959V11.3898H170.729V18.221H173.959V28.9022C173.959 32.2042 174.783 34.5904 176.424 36.0476C178.073 37.5047 180.367 38.24 183.307 38.24H187.434V31.2617H184.54C183.656 31.2617 183.023 31.0879 182.641 30.7337V30.7404Z" fill="#5EBC5E"/>
<path d="M200.058 2.63355H191.943V38.2467H200.058V2.63355Z" fill="#5EBC5E"/>
<path d="M224.219 11.3965L218.147 28.187L212.023 11.3965H202.959L213.731 37.3309L207.659 51H216.387L233 11.3965H224.219Z" fill="#5EBC5E"/>
<path d="M57.6105 11.0088H56.9909C54.9209 11.0088 53.2398 12.7132 53.2398 14.8121C52.4817 13.5621 51.394 12.5528 49.9898 11.7775C48.579 11.0088 46.9441 10.6211 45.0785 10.6211C42.8964 10.6211 40.9187 11.1826 39.1454 12.3055C37.372 13.4284 35.9745 15.0326 34.9461 17.1181C33.9176 19.2035 33.4034 21.6232 33.4034 24.3837C33.4034 27.1443 33.9176 29.5773 34.9461 31.6761C35.9745 33.775 37.372 35.3992 39.1454 36.5355C40.9187 37.6718 42.8766 38.2467 45.0323 38.2467C46.898 38.2467 48.5395 37.859 49.9436 37.0903C51.3544 36.3216 52.4487 35.3123 53.2398 34.0557C53.2398 36.1545 54.9209 37.859 56.9909 37.859H57.6105C59.6805 37.859 61.3616 36.1545 61.3616 34.0557V14.8054C61.3616 12.7066 59.6805 11.0021 57.6105 11.0021V11.0088ZM51.5588 29.2966C50.4381 30.4864 49.0669 31.0746 47.4517 31.0746C45.8366 31.0746 44.472 30.473 43.3447 29.2699C42.224 28.0667 41.6571 26.4358 41.6571 24.3837C41.6571 21.7836 42.5536 19.892 44.3533 18.7089C45.2829 18.094 46.364 17.7865 47.4715 17.7932C49.0735 17.7999 50.4315 18.3948 51.5522 19.5712C52.6729 20.7609 53.2398 22.3785 53.2398 24.4305C53.2398 26.4826 52.6795 28.1068 51.5522 29.2899L51.5588 29.2966Z" fill="#D93B2E"/>
<path d="M56.0482 4.73905C53.6024 6.38335 53.3783 11.3764 53.3783 11.3764C56.1075 8.45544 57.9732 9.85911 60.2146 8.32175C62.456 6.7844 62.1989 3.51586 62.1989 3.51586C60.4585 3.30865 58.494 3.09476 56.0482 4.73905Z" fill="#5EBC5E"/>
<path d="M52.0071 11.851C51.5522 10.6211 50.3524 8.00092 49.0339 6.43683C50.3458 7.68676 52.5015 9.87916 53.2201 11.4165C53.3123 9.13722 53.1278 5.36737 51.1632 3.39554C48.2362 0.447838 45.4675 0.200524 43.0019 0C43.0019 0 41.756 4.44495 44.439 7.19214C46.8057 9.6118 49.3833 8.79633 52.0005 11.8577L52.0071 11.851Z" fill="#5EBC5E"/>
</g>
<defs>
<clipPath id="clip0_327_1108">
<rect width="233" height="51" fill="white"/>
</clipPath>
</defs>
</svg>
