<svg width="22" height="22" viewBox="0 0 22 22" fill="none" xmlns="http://www.w3.org/2000/svg">
<path d="M6.5 21.6667C5.90417 21.6667 5.3941 21.4545 4.96979 21.0302C4.54549 20.6059 4.33333 20.0958 4.33333 19.5C4.33333 18.9042 4.54549 18.3941 4.96979 17.9698C5.3941 17.5455 5.90417 17.3333 6.5 17.3333C7.09583 17.3333 7.6059 17.5455 8.03021 17.9698C8.45451 18.3941 8.66667 18.9042 8.66667 19.5C8.66667 20.0958 8.45451 20.6059 8.03021 21.0302C7.6059 21.4545 7.09583 21.6667 6.5 21.6667ZM17.3333 21.6667C16.7375 21.6667 16.2274 21.4545 15.8031 21.0302C15.3788 20.6059 15.1667 20.0958 15.1667 19.5C15.1667 18.9042 15.3788 18.3941 15.8031 17.9698C16.2274 17.5455 16.7375 17.3333 17.3333 17.3333C17.9292 17.3333 18.4392 17.5455 18.8635 17.9698C19.2878 18.3941 19.5 18.9042 19.5 19.5C19.5 20.0958 19.2878 20.6059 18.8635 21.0302C18.4392 21.4545 17.9292 21.6667 17.3333 21.6667ZM4.55 2.16667H20.5292C20.9444 2.16667 21.2604 2.35174 21.4771 2.72188C21.6938 3.09201 21.7028 3.46667 21.5042 3.84583L17.6583 10.7792C17.4597 11.1403 17.1934 11.4201 16.8594 11.6188C16.5253 11.8174 16.1597 11.9167 15.7625 11.9167H7.69167L6.5 14.0833H18.4167C18.7236 14.0833 18.9809 14.1872 19.1885 14.3948C19.3962 14.6024 19.5 14.8597 19.5 15.1667C19.5 15.4736 19.3962 15.7309 19.1885 15.9385C18.9809 16.1462 18.7236 16.25 18.4167 16.25H6.5C5.6875 16.25 5.07361 15.8934 4.65833 15.1802C4.24306 14.467 4.225 13.7583 4.60417 13.0542L6.06667 10.4L2.16667 2.16667H1.08333C0.776389 2.16667 0.519097 2.06285 0.311458 1.85521C0.103819 1.64757 0 1.39028 0 1.08333C0 0.776389 0.103819 0.519097 0.311458 0.311458C0.519097 0.103819 0.776389 0 1.08333 0H2.84375C3.04236 0 3.23194 0.0541667 3.4125 0.1625C3.59306 0.270833 3.72847 0.424306 3.81875 0.622917L4.55 2.16667Z" fill="#FBEBEA"/>
</svg>
