<svg width="416" height="395" viewBox="0 0 416 395" fill="none" xmlns="http://www.w3.org/2000/svg">
<g clip-path="url(#clip0_160_1105)">
<rect width="416" height="395" rx="10" fill="#3C0D09"/>
<g clip-path="url(#clip1_160_1105)">
<path d="M266.707 177.388C268.414 177.388 269.757 178.728 269.757 180.436V186.529C269.757 196.645 261.583 204.811 251.457 204.811C251.457 194.756 243.222 186.529 233.158 186.529C223.093 186.529 214.858 194.756 214.858 204.811H202.657C202.657 194.756 194.422 186.529 184.357 186.529C174.292 186.529 166.057 194.756 166.057 204.811C155.932 204.811 147.757 196.645 147.757 186.529V174.341C147.757 170.989 150.502 168.247 153.857 168.247H211.807C220.225 168.247 227.056 161.422 227.056 153.013V119.496C227.056 116.145 229.801 113.403 233.156 113.403H238.28C242.672 113.403 246.698 115.779 248.894 119.558L252.797 126.383C253.346 127.357 252.614 128.637 251.456 128.637C243.038 128.637 236.206 135.462 236.206 143.872V162.154C236.206 170.563 243.038 177.388 251.456 177.388H266.705H266.707Z" fill="#FBEBEA"/>
<path d="M184.357 217C191.095 217 196.558 211.543 196.558 204.811C196.558 198.08 191.095 192.623 184.357 192.623C177.619 192.623 172.157 198.08 172.157 204.811C172.157 211.543 177.619 217 184.357 217Z" fill="#FBEBEA"/>
<path d="M233.158 217C239.896 217 245.358 211.543 245.358 204.811C245.358 198.08 239.896 192.623 233.158 192.623C226.419 192.623 220.957 198.08 220.957 204.811C220.957 211.543 226.419 217 233.158 217Z" fill="#FBEBEA"/>
<path d="M269.757 159.289V168.247H251.457C248.103 168.247 245.358 165.505 245.358 162.154V143.872C245.358 140.521 248.103 137.778 251.457 137.778H259.326L268.171 153.258C269.208 155.086 269.757 157.157 269.757 159.291V159.289Z" fill="#FBEBEA"/>
<path d="M215.344 95H170.266C157.822 95 147.757 105.055 147.757 117.487V156.428C147.757 159.779 150.502 162.521 153.857 162.521H209.671C215.893 162.521 220.957 157.463 220.957 151.247V100.607C220.957 97.4992 218.455 95 215.344 95ZM194.116 138.389C193.201 139.243 192.043 139.669 190.883 139.669C189.723 139.669 188.564 139.243 187.649 138.389L184.416 135.158L181.061 138.51C180.146 139.424 178.988 139.85 177.828 139.85C176.668 139.85 175.509 139.424 174.594 138.51C172.825 136.742 172.825 133.817 174.594 132.05L177.949 128.699L174.715 125.469C172.945 123.701 172.945 120.776 174.715 119.01C176.545 117.242 179.413 117.242 181.242 119.01L184.414 122.24L187.464 119.132C189.294 117.364 192.162 117.364 193.992 119.132C195.762 120.961 195.762 123.825 193.992 125.654L190.881 128.701L194.115 131.869C195.884 133.698 195.884 136.562 194.115 138.391L194.116 138.389Z" fill="#FBEBEA"/>
</g>
</g>
<defs>
<clipPath id="clip0_160_1105">
<rect width="416" height="395" rx="10" fill="white"/>
</clipPath>
<clipPath id="clip1_160_1105">
<rect width="122" height="122" fill="white" transform="translate(147.757 95)"/>
</clipPath>
</defs>
</svg>
